<svg width="128" height="128" viewBox="0 0 128 128" fill="none" xmlns="http://www.w3.org/2000/svg">
<g clip-path="url(#clip0_1_3)">
<path fill-rule="evenodd" clip-rule="evenodd" d="M27.076 6.60001C15.7542 6.60001 6.57599 15.7782 6.57599 27.1V100.9C6.57599 112.222 15.7542 121.4 27.076 121.4H100.876C112.198 121.4 121.376 112.222 121.376 100.9V27.1C121.376 15.7782 112.198 6.60001 100.876 6.60001H27.076ZM113.176 27.1V31.2H59.876C57.6116 31.2 55.776 29.3644 55.776 27.1V14.8H100.876C107.669 14.8 113.176 20.3069 113.176 27.1ZM27.076 14.8H47.576V27.1C47.576 30.8612 49.2641 34.2281 51.9241 36.4842C46.5835 38.3022 41.6899 41.3347 37.5837 45.4408C30.5276 52.4968 26.6421 61.8783 26.6421 71.8569C26.6421 78.029 28.1608 84.0757 31.0506 89.474H26.2315C25.5513 89.474 25 90.0255 25 90.7055C25 91.3857 25.5515 91.9371 26.2315 91.9371H33.1565L33.1772 91.9372C33.1841 91.9372 33.1911 91.9372 33.1979 91.9371H62.3579C63.0381 91.9369 63.5894 91.3854 63.5894 90.7052C63.5894 90.025 63.0379 89.4737 62.3579 89.4737H33.8737C30.7517 84.1456 29.1052 78.0701 29.1052 71.8566C29.1052 55.8549 39.932 42.3343 54.6448 38.2354C56.2323 38.9824 58.0053 39.4 59.876 39.4H76.8384C78.994 40.2529 81.0686 41.324 83.0325 42.6045C83.6021 42.9759 84.3652 42.8153 84.7367 42.2454C85.1081 41.6757 84.9474 40.9127 84.3776 40.5412C83.7649 40.1417 83.1422 39.7612 82.5101 39.4H113.176V100.9C113.176 107.693 107.669 113.2 100.876 113.2H27.076C20.2829 113.2 14.776 107.693 14.776 100.9V27.1C14.776 20.3069 20.2829 14.8 27.076 14.8ZM30.3369 42.6737C33.2796 42.6737 35.6738 40.2794 35.6738 37.3368C35.6737 34.3942 33.2794 32 30.3369 32C27.3942 32 25 34.3942 25 37.3369C25 40.2794 27.3942 42.6737 30.3369 42.6737ZM30.3369 34.4631C31.9214 34.4631 33.2106 35.7524 33.2106 37.3368C33.2106 38.9213 31.9213 40.2104 30.3369 40.2104C28.7524 40.2104 27.4632 38.9211 27.4632 37.3368C27.4631 35.7524 28.7524 34.4631 30.3369 34.4631ZM68.9263 56.6315C68.2461 56.6315 67.6948 57.183 67.6948 57.8631C67.6948 58.5432 68.2463 59.0946 68.9263 59.0946C72.3219 59.0946 75.0842 56.3323 75.0842 52.9368C75.0842 49.5412 72.3219 46.7789 68.9263 46.7789C65.5308 46.7789 62.7685 49.5412 62.7685 52.9368C62.7685 54.4547 63.3256 55.9129 64.3371 57.0429C64.791 57.5496 65.5696 57.5927 66.0763 57.139C66.583 56.6853 66.6261 55.9067 66.1724 55.3998C65.5658 54.7224 65.2317 53.8476 65.2317 52.9369C65.2317 50.8996 66.889 49.2421 68.9265 49.2421C70.9638 49.2421 72.6213 50.8995 72.6213 52.9369C72.621 54.9742 70.9636 56.6315 68.9263 56.6315ZM31.1579 99.3263H26.2315C25.5513 99.3263 25 99.8778 25 100.558C25 101.238 25.5515 101.789 26.2315 101.789H31.1579C31.8381 101.789 32.3894 101.238 32.3894 100.558C32.3894 99.8777 31.8381 99.3263 31.1579 99.3263ZM96.4317 47.1894C96.4317 50.1321 94.0375 52.5263 91.0948 52.5263C88.1521 52.5263 85.7579 50.1321 85.7579 47.1894C85.7579 44.2468 88.1521 41.8525 91.0948 41.8525C94.0375 41.8525 96.4317 44.2468 96.4317 47.1894ZM93.9685 47.1894C93.9685 45.6051 92.6793 44.3158 91.0948 44.3158C89.5103 44.3158 88.221 45.6051 88.2211 47.1894C88.2211 48.7738 89.5103 50.0631 91.0948 50.0631C92.6792 50.0631 93.9685 48.774 93.9685 47.1894ZM95.1447 53.4978C94.5477 53.8237 94.3275 54.5717 94.6534 55.1689C97.4282 60.2544 98.8948 66.0251 98.8948 71.8568C98.8948 78.07 97.2483 84.1456 94.1263 89.4738H91.9158C91.2356 89.4738 90.6842 90.0253 90.6842 90.7054C90.6842 91.3856 91.2357 91.9369 91.9158 91.9369H94.8021L94.8228 91.9371L94.8309 91.937L94.8435 91.9369H100.126C100.807 91.9369 101.358 91.3854 101.358 90.7054C101.358 90.0251 100.806 89.4738 100.126 89.4738H96.9494C99.8392 84.0755 101.358 78.029 101.358 71.8568C101.358 65.6139 99.7872 59.4354 96.8156 53.989C96.4899 53.392 95.7419 53.1721 95.1447 53.4978ZM60.3052 74.2842C60.3052 75.4161 61.226 76.3369 62.3579 76.3369C63.4898 76.3369 64.4106 75.4161 64.4106 74.2842C64.4106 73.1523 63.4898 72.2315 62.3579 72.2315C61.6778 72.2315 61.1263 71.6802 61.1263 71C61.1263 70.3199 61.6777 69.7685 62.3579 69.7685C64.8479 69.7685 66.8737 71.7942 66.8737 74.2842C66.8737 76.7743 64.8479 78.8 62.3579 78.8C59.8678 78.8 57.8421 76.7743 57.8421 74.2842C57.8421 73.6042 58.3934 73.0527 59.0737 73.0527C59.7537 73.0527 60.3052 73.604 60.3052 74.2842ZM94.379 96.0421H90.5968C89.9775 89.8356 84.7318 84.9705 78.3685 84.9559V79.9494H91.9158C93.5003 79.9494 94.7894 78.6601 94.7894 77.0758V72.1494C94.7894 70.5649 93.5001 69.2758 91.9158 69.2758H78.3685V68.8652C78.3685 68.185 77.817 67.6337 77.1369 67.6337C76.4567 67.6337 75.9054 68.1851 75.9054 68.8652V84.9559C69.5421 84.9705 64.2963 89.8358 63.677 96.0421H60.7158C60.0356 96.0421 59.4842 96.5936 59.4842 97.2737C59.4842 97.9539 60.0357 98.5052 60.7158 98.5052H94.3789C95.0591 98.5052 95.6104 97.9537 95.6104 97.2737C95.6106 96.5936 95.0591 96.0421 94.379 96.0421ZM78.3685 71.739H91.9158C92.142 71.739 92.3263 71.9232 92.3263 72.1496V77.0759C92.3263 77.3022 92.1422 77.4865 91.9158 77.4865H78.3685V71.739ZM66.1558 96.0421C66.7635 91.1872 70.9167 87.4192 75.9337 87.4192H78.3403C83.3573 87.4192 87.5104 91.1872 88.1181 96.0421H66.1558ZM96.8421 107.537H101.768C102.449 107.537 103 108.088 103 108.768C103 109.449 102.449 110 101.768 110H96.8421C96.162 110 95.6106 109.449 95.6106 108.768C95.6106 108.088 96.1619 107.537 96.8421 107.537ZM55.7894 102.611H52.5052C51.825 102.611 51.2737 103.162 51.2737 103.842C51.2737 104.522 51.8251 105.074 52.5052 105.074H55.7894C56.4697 105.074 57.021 104.522 57.021 103.842C57.021 103.162 56.4697 102.611 55.7894 102.611ZM72.2104 102.611H83.7052C84.3854 102.611 84.9369 103.162 84.9368 103.842C84.9368 104.522 84.3854 105.074 83.7052 105.074H72.2104C71.5304 105.074 70.9789 104.522 70.9789 103.842C70.9789 103.162 71.5302 102.611 72.2104 102.611ZM44.2948 96.0421H41.0106C40.3304 96.0421 39.779 96.5936 39.779 97.2737C39.779 97.9539 40.3305 98.5052 41.0106 98.5052H44.2948C44.975 98.5052 45.5263 97.9537 45.5263 97.2737C45.5263 96.5936 44.9749 96.0421 44.2948 96.0421ZM43.0631 59.5054C43.0631 60.1854 42.5118 60.7369 41.8315 60.7369C39.3415 60.7369 37.3159 62.7628 37.3159 65.2528C37.3159 67.7429 39.3416 69.7686 41.8317 69.7686C44.3218 69.7686 46.3475 67.7429 46.3475 65.2528C46.3475 64.0295 45.8662 62.8839 44.9922 62.0274C44.5065 61.5513 44.4988 60.7715 44.9749 60.2858C45.4509 59.8003 46.2308 59.7924 46.7164 60.2685C48.0668 61.5919 48.8106 63.3621 48.8106 65.2528C48.8106 69.1012 45.6797 72.2318 41.8315 72.2318C37.9833 72.2318 34.8527 69.1012 34.8527 65.2528C34.8527 61.4045 37.9833 58.2738 41.8315 58.2738C42.5116 58.2738 43.0631 58.8251 43.0631 59.5054ZM41.0106 107.537H36.0842C35.404 107.537 34.8527 108.088 34.8527 108.768C34.8527 109.449 35.4042 110 36.0842 110H41.0106C41.6908 110 42.2421 109.449 42.2421 108.768C42.2421 108.088 41.6906 107.537 41.0106 107.537Z" fill="#A3A1A1"/>
</g>
<defs>
<clipPath id="clip0_1_3">
<rect width="128" height="128" fill="white"/>
</clipPath>
</defs>
</svg>
